# WaveFront *.obj file (generated by CINEMA 4D)

mtllib ./circleBluIndicator.mtl

v 0 0 0
v 1.25 0 0
v 1.23100972175598 0 -0.21706022322178
v 1.17461574077606 0 -0.42752519249916
v 1.08253180980682 0 -0.625
v 0.95755553245544 0 -0.8034844994545
v 0.8034844994545 0 -0.95755553245544
v 0.625 0 -1.08253180980682
v 0.42752519249916 0 -1.17461574077606
v 0.21706022322178 0 -1.23100972175598
v 0 0 -1.25
v -0.21706022322178 0 -1.23100972175598
v -0.42752519249916 0 -1.17461574077606
v -0.625 0 -1.08253180980682
v -0.8034844994545 0 -0.95755553245544
v -0.95755553245544 0 -0.8034844994545
v -1.08253180980682 0 -0.625
v -1.17461574077606 0 -0.42752519249916
v -1.23100972175598 0 -0.21706022322178
v -1.25 0 0
v -1.23100972175598 0 0.21706022322178
v -1.17461574077606 0 0.42752519249916
v -1.08253180980682 0 0.625
v -0.95755553245544 0 0.8034844994545
v -0.8034844994545 0 0.95755553245544
v -0.625 0 1.08253180980682
v -0.42752519249916 0 1.17461574077606
v -0.21706022322178 0 1.23100972175598
v 0 0 1.25
v 0.21706022322178 0 1.23100972175598
v 0.42752519249916 0 1.17461574077606
v 0.625 0 1.08253180980682
v 0.8034844994545 0 0.95755553245544
v 0.95755553245544 0 0.8034844994545
v 1.08253180980682 0 0.625
v 1.17461574077606 0 0.42752519249916
v 1.23100972175598 0 0.21706022322178
# 37 vertices

vn 0 -1 0
vn 0 0 0
vn 0 -1 0
vn 0 -1 0
# 4 normals

vt 1 0.5 0
vt 0.5 0.5 0
vt 0.99240386486053 0.58682411909103 0
vt 0 1 0
vt 0.96984624862671 0.67101007699966 0
vt 0.93301272392273 0.75 0
vt 0.88302218914032 0.82139384746552 0
vt 0.82139372825623 0.88302218914032 0
vt 0.75 0.93301272392273 0
vt 0.67101001739502 0.96984630823135 0
vt 0.58682405948639 0.99240386486053 0
vt 0.5 1 0
vt 0.41317588090897 0.99240386486053 0
vt 0.32898992300034 0.96984630823135 0
vt 0.25 0.93301272392273 0
vt 0.17860618233681 0.88302218914032 0
vt 0.11697778105736 0.82139384746552 0
vt 0.06698729097843 0.75 0
vt 0.03015368804336 0.67101007699966 0
vt 0.00759612303227 0.58682411909103 0
vt 0 0.5 0
vt 0.00759612303227 0.41317594051361 0
vt 0.03015368804336 0.32898998260498 0
vt 0.06698729097843 0.25 0
vt 0.11697778105736 0.17860627174377 0
vt 0.17860618233681 0.11697781085968 0
vt 0.25 0.06698727607727 0
vt 0.32898992300034 0.03015375137329 0
vt 0.41317588090897 0.00759613513947 0
vt 0.5 0 0
vt 0.58682405948639 0.00759613513947 0
vt 0.67101001739502 0.03015375137329 0
vt 0.75 0.06698727607727 0
vt 0.82139372825623 0.11697781085968 0
vt 0.88302218914032 0.17860627174377 0
vt 0.93301272392273 0.25 0
vt 0.96984624862671 0.32898998260498 0
vt 0.99240386486053 0.41317594051361 0
# 38 texture coordinates

o Disco
usemtl Nuovo
f 2/1/1 1/2/1 3/3/1
f 3/3/1 1/2/1 4/5/1
f 4/5/1 1/2/1 5/6/1
f 5/6/1 1/2/1 6/7/1
f 6/7/1 1/2/1 7/8/1
f 7/8/1 1/2/1 8/9/1
f 8/9/1 1/2/1 9/10/1
f 9/10/1 1/2/1 10/11/1
f 10/11/1 1/2/1 11/12/1
f 11/12/1 1/2/1 12/13/1
f 12/13/1 1/2/1 13/14/1
f 13/14/1 1/2/1 14/15/1
f 14/15/1 1/2/1 15/16/1
f 15/16/1 1/2/1 16/17/1
f 16/17/1 1/2/1 17/18/1
f 17/18/1 1/2/1 18/19/1
f 18/19/1 1/2/1 19/20/1
f 19/20/1 1/2/1 20/21/1
f 20/21/1 1/2/1 21/22/1
f 21/22/1 1/2/1 22/23/3
f 22/23/3 1/2/1 23/24/3
f 23/24/3 1/2/1 24/25/3
f 24/25/3 1/2/1 25/26/3
f 25/26/3 1/2/1 26/27/3
f 26/27/3 1/2/1 27/28/3
f 27/28/3 1/2/1 28/29/3
f 28/29/3 1/2/1 29/30/1
f 29/30/1 1/2/1 30/31/1
f 30/31/1 1/2/1 31/32/4
f 31/32/4 1/2/1 32/33/4
f 32/33/4 1/2/1 33/34/4
f 33/34/4 1/2/1 34/35/4
f 34/35/4 1/2/1 35/36/4
f 35/36/4 1/2/1 36/37/4
f 36/37/4 1/2/1 37/38/4
f 37/38/4 1/2/1 2/1/1

