# WaveFront *.obj file (generated by CINEMA 4D)

mtllib ./mappa.mtl

v -6.27624273300171 -0.00000025871719 -6.46038961410522
v 6.39205837249756 -0.00000025871719 -6.46038866043091
v -6.27624464035034 0.00000004645857 6.20791244506836
v 6.39205837249756 0.00000004645857 6.20791244506836
# 4 vertices

vn 0 -1 0
# 1 normal

vt 0.7352203130722 0.73999148607254 0
vt 0.7352203130722 0.26509511470795 0
vt 0.26032400131226 0.7399914264679 0
vt 0.26032400131226 0.26509523391724 0
# 4 texture coordinates

o Board_0
usemtl map solid
f 1/1/1 2/2/1 3/3/1
f 2/2/1 4/4/1 3/3/1

